<svg xmlns="http://www.w3.org/2000/svg" viewBox="0 0 180 180" fill="none">
  <!-- Apple Touch Icon - 180x180 -->
  <rect width="180" height="180" rx="40" fill="#080A12"/>

  <!-- Centered logo, scaled up -->
  <g transform="translate(30, 25) scale(2.5)">
    <path d="M8 20C8 12.268 14.268 6 22 6h4c7.732 0 14 6.268 14 14v4c0 7.732-6.268 14-14 14h-2l-6 6v-6.17C11.058 35.93 8 30.374 8 24v-4z" fill="#06B6D4"/>
    <circle cx="28" cy="20" r="4" fill="#080A12"/>
    <circle cx="29.5" cy="18.5" r="1.5" fill="#FFFFFF"/>
    <path d="M36 22l6 2-6 2v-4z" fill="#06B6D4"/>
    <path d="M14 22c2-4 6-6 10-6" stroke="#080A12" stroke-width="2" stroke-linecap="round" opacity="0.3"/>
  </g>
</svg>