<svg xmlns="http://www.w3.org/2000/svg" viewBox="0 0 1200 630" fill="none">
  <!-- Open Graph Image - 1200x630 -->

  <!-- Background -->
  <rect width="1200" height="630" fill="#080A12"/>

  <!-- Grid pattern -->
  <defs>
    <pattern id="grid" width="50" height="50" patternUnits="userSpaceOnUse">
      <path d="M 50 0 L 0 0 0 50" fill="none" stroke="#06B6D4" stroke-width="0.5" opacity="0.1"/>
    </pattern>
  </defs>
  <rect width="1200" height="630" fill="url(#grid)"/>

  <!-- Logo -->
  <g transform="translate(100, 200) scale(3)">
    <path d="M8 20C8 12.268 14.268 6 22 6h4c7.732 0 14 6.268 14 14v4c0 7.732-6.268 14-14 14h-2l-6 6v-6.17C11.058 35.93 8 30.374 8 24v-4z" fill="#06B6D4"/>
    <circle cx="28" cy="20" r="4" fill="#080A12"/>
    <circle cx="29.5" cy="18.5" r="1.5" fill="#FFFFFF"/>
    <path d="M36 22l6 2-6 2v-4z" fill="#06B6D4"/>
    <path d="M14 22c2-4 6-6 10-6" stroke="#080A12" stroke-width="2" stroke-linecap="round" opacity="0.3"/>
  </g>

  <!-- Brand name -->
  <text x="280" y="320" font-family="system-ui, -apple-system, sans-serif" font-size="72" font-weight="700" fill="#06B6D4">Coucou IA</text>

  <!-- Tagline -->
  <text x="100" y="420" font-family="system-ui, -apple-system, sans-serif" font-size="32" fill="#94A3B8">Votre marque est-elle visible dans les réponses IA ?</text>

  <!-- URL -->
  <text x="100" y="550" font-family="system-ui, -apple-system, sans-serif" font-size="24" fill="#64748B">coucou-ia.com</text>

  <!-- Decorative elements -->
  <circle cx="1000" cy="150" r="100" fill="#06B6D4" opacity="0.1"/>
  <circle cx="1100" cy="500" r="150" fill="#8B5CF6" opacity="0.1"/>
</svg>